<svg xmlns="http://www.w3.org/2000/svg" version="1.2" baseProfile="tiny-ps" xml:space="preserve" fill="#fff" viewBox="0 0 512 512">
  <title>121</title>
  <path fill="#00214d" d="M0 0h512v512H0z"/>
  <path d="M175 313c0 13-9 22-24 22-14 0-24-9-24-22v-63h-1s-9 11-23 11c-10 0-19-8-19-19 0-9 9-17 9-17l34-36s9-10 24-10c16 0 24 8 24 22zm81-26v2h41c15 0 24 9 24 22s-9 22-24 22h-80c-15 0-26-11-26-24 0-54 80-59 80-79 0-7-5-12-17-12-17 0-19 15-36 15-16 0-24-7-24-20 0-17 22-36 60-36 43 0 67 24 67 53 0 37-41 42-65 57zm160 26c0 13-9 22-24 22s-23-9-23-22v-63h-3s-9 11-21 11c-11 0-19-8-19-19 0-9 8-17 8-17l35-36s8-10 23-10 24 8 24 22z"/>
</svg>
